<?xml version="1.0" encoding="UTF-8"?>
<svg width="92px" height="96px" viewBox="0 1 92 97" xmlns="http://www.w3.org/2000/svg">
    <title>Suggestio Icon</title>
    <g fill="none" stroke-linecap="round" stroke-linejoin="round">
        <path d="M4 12 C4 6 12 4 20 4 L72 4 C80 4 88 6 88 12 L88 70 C88 78 80 80 72 80 L50 80 L32 94 L36 80 L20 80 C12 80 4 78 4 70 Z"
              stroke="#24292F" stroke-width="6"/>

        <g transform="translate(32,29) scale(2)">
            <path d="M5 17 H9 M5.6667 19.5 H8.3333" stroke="#24292F" stroke-width="1.5" stroke-linecap="round"/>
            <path d="M2.41 11.68 L3.51 12.72 C3.82 13.01 4 13.42 4 13.84 C4 14.48 4.52 15 5.16 15 H8.84 C9.48 15 10 14.48 10 13.84 C10 13.42 10.18 13.01 10.49 12.72 L11.59 11.68 C13.13 10.22 13.99 8.30 14 6.30 L14 6.22 C14 2.81 10.87 0 7 0 C3.13 0 0 2.81 0 6.22 L0 6.30 C0.01 8.30 0.87 10.22 2.41 11.68 Z" 
                  stroke="#24292F" stroke-width="1.5"/>
        </g>

        <line x1="46" y1="20" x2="46" y2="15" stroke="#24292F" stroke-width="4"/>
        <line x1="36" y1="24" x2="31" y2="18" stroke="#24292F" stroke-width="4"/>
        <line x1="56" y1="24" x2="61" y2="18" stroke="#24292F" stroke-width="4"/>
    </g>
</svg>